<svg xmlns="http://www.w3.org/2000/svg" xmlns:xlink="http://www.w3.org/1999/xlink" width="387.021" height="769.6" viewBox="0 0 387.021 769.6">
  <defs>
    <linearGradient id="linear-gradient" x1="0.5" x2="0.5" y2="1" gradientUnits="objectBoundingBox">
      <stop offset="0" stop-color="#ff1919"/>
      <stop offset="1" stop-color="#b81818"/>
    </linearGradient>
  </defs>
  <g id="Banner" transform="translate(-18.989 82)" fill="url(#linear-gradient)">
    <path d="M 212.4999084472656 684.1004638671875 C 210.7843017578125 684.1004638671875 209.1056060791016 683.5051879882812 207.7733001708984 682.4241943359375 L 25.28510284423828 534.3275756835938 C 23.38330268859863 532.7841796875 22.39290237426758 530.6339721679688 22.49650192260742 528.273193359375 L 22.49990272521973 528.1965942382812 L 22.49990272521973 528.1198120117188 L 22.49990272521973 -78.49990844726562 L 402.4999084472656 -78.49990844726562 L 402.4999084472656 528.1148681640625 L 402.4999084472656 528.1925048828125 L 402.5032958984375 528.27001953125 C 402.6080932617188 530.632080078125 401.6180114746094 532.7835083007812 399.7153930664062 534.3278198242188 L 217.2261962890625 682.4243774414062 C 215.8941040039062 683.5050659179688 214.2154998779297 684.1004638671875 212.4999084472656 684.1004638671875 Z" stroke="none"/>
    <path d="M 212.4999084472656 680.6004638671875 C 213.1473083496094 680.6004638671875 214.1103057861328 680.4453125 215.0207061767578 679.7066650390625 L 397.5096130371094 531.6102905273438 C 398.5589904785156 530.7584838867188 399.0627136230469 529.6868896484375 398.9999084472656 528.1148681640625 L 398.9999084472656 -74.99990844726562 L 25.99982452392578 -74.99990844726562 L 25.99320220947266 528.4266967773438 C 25.93780136108398 529.6876220703125 26.44170188903809 530.7586669921875 27.49060249328613 531.6099853515625 L 209.9784088134766 679.7061767578125 C 210.8894958496094 680.4453125 211.8525085449219 680.6004638671875 212.4999084472656 680.6004638671875 M 212.4999084472656 687.6004638671875 C 210.0440063476562 687.6004638671875 207.5881042480469 686.781005859375 205.5680999755859 685.14208984375 L 23.0796012878418 537.0452880859375 C 20.10230255126953 534.6289672851562 18.85930252075195 531.3240966796875 18.99990272521973 528.1198120117188 L 18.99990272521973 -81.99990844726562 L 405.9999084472656 -81.99990844726562 L 405.9999084472656 528.1148681640625 C 406.14208984375 531.32080078125 404.8995056152344 534.6278076171875 401.9211120605469 537.0452880859375 L 219.4317016601562 685.14208984375 C 217.4116058349609 686.781005859375 214.9557952880859 687.6004638671875 212.4999084472656 687.6004638671875 Z" stroke="none" fill="#eeaa0c"/>
  </g>
</svg>
