<svg xmlns="http://www.w3.org/2000/svg" xmlns:xlink="http://www.w3.org/1999/xlink" width="387" height="870.145" viewBox="0 0 387 870.145">
  <defs>
    <linearGradient id="linear-gradient" x1="0.5" x2="0.5" y2="1" gradientUnits="objectBoundingBox">
      <stop offset="0" stop-color="#ff1919"/>
      <stop offset="1" stop-color="#b81818"/>
    </linearGradient>
  </defs>
  <g id="Banner" transform="translate(-19 82)" fill="url(#linear-gradient)">
    <path d="M 212.4999084472656 784.6447143554688 C 210.5833587646484 784.6447143554688 208.7588043212891 783.9216918945312 207.3623504638672 782.6090698242188 L 26.6226863861084 612.6918334960938 C 25.40924263000488 611.5509643554688 24.64824104309082 610.192138671875 24.36090850830078 608.6531372070312 L 23.82746315002441 605.7954711914062 L 22.49990844726562 605.7954711914062 L 22.49990844726562 -78.49994659423828 L 402.4999084472656 -78.49994659423828 L 402.4999084472656 605.7954711914062 L 401.1726989746094 605.7954711914062 L 400.6392517089844 608.6531372070312 C 400.3518981933594 610.1920776367188 399.5909118652344 611.5508422851562 398.3772277832031 612.6915893554688 L 217.6373596191406 782.6091918945312 C 216.2410125732422 783.9216918945312 214.4164581298828 784.6447143554688 212.4999084472656 784.6447143554688 Z" stroke="none"/>
    <path d="M 212.4999084472656 781.1446533203125 C 213.5221405029297 781.1446533203125 214.4954376220703 780.7589721679688 215.2400207519531 780.0589599609375 L 395.9801330566406 610.141357421875 C 396.6407470703125 609.5205078125 397.0506286621094 608.8037109375 397.19873046875 608.0108642578125 L 398.2657775878906 602.2955932617188 L 398.9999084472656 602.2955932617188 L 398.9999084472656 -74.99984741210938 L 25.99990844726562 -74.99984741210938 L 25.99990844726562 602.2955932617188 L 26.73437881469727 602.2955932617188 L 27.80143737792969 608.0108642578125 C 27.94955635070801 608.8037719726562 28.35943794250488 609.520751953125 29.0200252532959 610.1416625976562 L 209.7595520019531 780.058837890625 C 210.5043792724609 780.7589721679688 211.4776763916016 781.1446533203125 212.4999084472656 781.1446533203125 M 212.4999084472656 788.1446533203125 C 209.7910919189453 788.1446533203125 207.0823822021484 787.1494750976562 204.965087890625 785.1591186523438 L 24.22532081604004 615.2418212890625 C 22.38296699523926 613.5098266601562 21.3192024230957 611.4317016601562 20.92037963867188 609.2955932617188 L 18.99990844726562 609.2955932617188 L 18.99990844726562 -81.99984741210938 L 405.9999084472656 -81.99984741210938 L 405.9999084472656 609.2955932617188 L 404.0798034667969 609.2955932617188 C 403.6809692382812 611.4317016601562 402.6170959472656 613.5098266601562 400.7745056152344 615.2418212890625 L 220.0347290039062 785.1591186523438 C 217.9174346923828 787.1494750976562 215.2087249755859 788.1446533203125 212.4999084472656 788.1446533203125 Z" stroke="none" fill="#eeaa0c"/>
  </g>
</svg>
